<svg xmlns="http://www.w3.org/2000/svg" viewBox="0 0 900 262" width="900" height="262" font-family="ui-monospace,SFMono-Regular,Menlo,Consolas,'Liberation Mono',monospace"><defs><linearGradient id="g" x1="0" y1="0" x2="1" y2="0"><stop offset="0" stop-color="#34d399"/><stop offset="1" stop-color="#60a5fa"/></linearGradient></defs><text x="8" y="36" font-size="10" fill="#94a3b8" font-weight="400" letter-spacing="3">LANGUAGES</text><rect x="140" y="18" width="53" height="28" rx="14" fill="none" stroke="#34d399" stroke-width="1.2"/><text x="167" y="36" font-size="12" fill="#e2e8f0" font-weight="400" letter-spacing="0" text-anchor="middle">Java</text><rect x="203" y="18" width="31" height="28" rx="14" fill="none" stroke="#34d399" stroke-width="1.2"/><text x="219" y="36" font-size="12" fill="#e2e8f0" font-weight="400" letter-spacing="0" text-anchor="middle">C</text><rect x="244" y="18" width="68" height="28" rx="14" fill="none" stroke="#34d399" stroke-width="1.2"/><text x="278" y="36" font-size="12" fill="#e2e8f0" font-weight="400" letter-spacing="0" text-anchor="middle">Python</text><line x1="8" y1="56" x2="892" y2="56" stroke="#334155" stroke-width="0.6"/><text x="8" y="82" font-size="10" fill="#94a3b8" font-weight="400" letter-spacing="3">WEB &amp; AI</text><rect x="140" y="64" width="53" height="28" rx="14" fill="none" stroke="#60a5fa" stroke-width="1.2"/><text x="167" y="82" font-size="12" fill="#e2e8f0" font-weight="400" letter-spacing="0" text-anchor="middle">HTML</text><rect x="203" y="64" width="46" height="28" rx="14" fill="none" stroke="#60a5fa" stroke-width="1.2"/><text x="226" y="82" font-size="12" fill="#e2e8f0" font-weight="400" letter-spacing="0" text-anchor="middle">CSS</text><rect x="259" y="64" width="97" height="28" rx="14" fill="none" stroke="#60a5fa" stroke-width="1.2"/><text x="308" y="82" font-size="12" fill="#e2e8f0" font-weight="400" letter-spacing="0" text-anchor="middle">JavaScript</text><rect x="366" y="64" width="75" height="28" rx="14" fill="none" stroke="#60a5fa" stroke-width="1.2"/><text x="404" y="82" font-size="12" fill="#e2e8f0" font-weight="400" letter-spacing="0" text-anchor="middle">FastAPI</text><rect x="451" y="64" width="97" height="28" rx="14" fill="none" stroke="#60a5fa" stroke-width="1.2"/><text x="500" y="82" font-size="12" fill="#e2e8f0" font-weight="400" letter-spacing="0" text-anchor="middle">Gemini API</text><line x1="8" y1="102" x2="892" y2="102" stroke="#334155" stroke-width="0.6"/><text x="8" y="128" font-size="10" fill="#94a3b8" font-weight="400" letter-spacing="3">CORE CS</text><rect x="140" y="110" width="46" height="28" rx="14" fill="none" stroke="#34d399" stroke-width="1.2"/><text x="163" y="128" font-size="12" fill="#e2e8f0" font-weight="400" letter-spacing="0" text-anchor="middle">DSA</text><rect x="196" y="110" width="46" height="28" rx="14" fill="none" stroke="#34d399" stroke-width="1.2"/><text x="219" y="128" font-size="12" fill="#e2e8f0" font-weight="400" letter-spacing="0" text-anchor="middle">OOP</text><rect x="252" y="110" width="126" height="28" rx="14" fill="none" stroke="#34d399" stroke-width="1.2"/><text x="315" y="128" font-size="12" fill="#e2e8f0" font-weight="400" letter-spacing="0" text-anchor="middle">Multithreading</text><rect x="388" y="110" width="148" height="28" rx="14" fill="none" stroke="#34d399" stroke-width="1.2"/><text x="462" y="128" font-size="12" fill="#e2e8f0" font-weight="400" letter-spacing="0" text-anchor="middle">Computer Networks</text><rect x="546" y="110" width="148" height="28" rx="14" fill="none" stroke="#34d399" stroke-width="1.2"/><text x="620" y="128" font-size="12" fill="#e2e8f0" font-weight="400" letter-spacing="0" text-anchor="middle">Operating Systems</text><line x1="8" y1="148" x2="892" y2="148" stroke="#334155" stroke-width="0.6"/><text x="8" y="174" font-size="10" fill="#94a3b8" font-weight="400" letter-spacing="3">PYTHON LIBS</text><rect x="140" y="156" width="60" height="28" rx="14" fill="none" stroke="#60a5fa" stroke-width="1.2"/><text x="170" y="174" font-size="12" fill="#e2e8f0" font-weight="400" letter-spacing="0" text-anchor="middle">NumPy</text><rect x="210" y="156" width="68" height="28" rx="14" fill="none" stroke="#60a5fa" stroke-width="1.2"/><text x="244" y="174" font-size="12" fill="#e2e8f0" font-weight="400" letter-spacing="0" text-anchor="middle">Pandas</text><rect x="288" y="156" width="97" height="28" rx="14" fill="none" stroke="#60a5fa" stroke-width="1.2"/><text x="337" y="174" font-size="12" fill="#e2e8f0" font-weight="400" letter-spacing="0" text-anchor="middle">Matplotlib</text><rect x="395" y="156" width="60" height="28" rx="14" fill="none" stroke="#60a5fa" stroke-width="1.2"/><text x="426" y="174" font-size="12" fill="#e2e8f0" font-weight="400" letter-spacing="0" text-anchor="middle">SciPy</text><rect x="466" y="156" width="90" height="28" rx="14" fill="none" stroke="#60a5fa" stroke-width="1.2"/><text x="511" y="174" font-size="12" fill="#e2e8f0" font-weight="400" letter-spacing="0" text-anchor="middle">PaddleOCR</text><rect x="566" y="156" width="75" height="28" rx="14" fill="none" stroke="#60a5fa" stroke-width="1.2"/><text x="603" y="174" font-size="12" fill="#e2e8f0" font-weight="400" letter-spacing="0" text-anchor="middle">PyMuPDF</text><line x1="8" y1="194" x2="892" y2="194" stroke="#334155" stroke-width="0.6"/><text x="8" y="220" font-size="10" fill="#94a3b8" font-weight="400" letter-spacing="3">TOOLS</text><rect x="140" y="202" width="46" height="28" rx="14" fill="none" stroke="#34d399" stroke-width="1.2"/><text x="163" y="220" font-size="12" fill="#e2e8f0" font-weight="400" letter-spacing="0" text-anchor="middle">Git</text><rect x="196" y="202" width="68" height="28" rx="14" fill="none" stroke="#34d399" stroke-width="1.2"/><text x="230" y="220" font-size="12" fill="#e2e8f0" font-weight="400" letter-spacing="0" text-anchor="middle">GitHub</text><rect x="274" y="202" width="75" height="28" rx="14" fill="none" stroke="#34d399" stroke-width="1.2"/><text x="311" y="220" font-size="12" fill="#e2e8f0" font-weight="400" letter-spacing="0" text-anchor="middle">VS Code</text><rect x="359" y="202" width="75" height="28" rx="14" fill="none" stroke="#34d399" stroke-width="1.2"/><text x="396" y="220" font-size="12" fill="#e2e8f0" font-weight="400" letter-spacing="0" text-anchor="middle">Jupyter</text><rect x="444" y="202" width="60" height="28" rx="14" fill="none" stroke="#34d399" stroke-width="1.2"/><text x="474" y="220" font-size="12" fill="#e2e8f0" font-weight="400" letter-spacing="0" text-anchor="middle">Colab</text><rect x="514" y="202" width="60" height="28" rx="14" fill="none" stroke="#34d399" stroke-width="1.2"/><text x="545" y="220" font-size="12" fill="#e2e8f0" font-weight="400" letter-spacing="0" text-anchor="middle">Figma</text><rect x="585" y="202" width="60" height="28" rx="14" fill="none" stroke="#34d399" stroke-width="1.2"/><text x="615" y="220" font-size="12" fill="#e2e8f0" font-weight="400" letter-spacing="0" text-anchor="middle">Canva</text><line x1="8" y1="240" x2="892" y2="240" stroke="#334155" stroke-width="0.6"/></svg>